HIERARCHY
ROOT Hips
{
    OFFSET   0.000000   0.000000   0.000000
    CHANNELS 6 Xposition Yposition Zposition Zrotation Xrotation Yrotation
    JOINT Chest
    {
        OFFSET   0.000000   8.007230   0.000000
        CHANNELS 3 Zrotation Xrotation Yrotation
        JOINT Chest2
        {
            OFFSET   0.000000  22.077100   0.000000
            CHANNELS 3 Zrotation Xrotation Yrotation
            JOINT Neck
            {
                OFFSET   0.000000  23.255100   0.000000
                CHANNELS 3 Zrotation Xrotation Yrotation
                JOINT Head
                {
                    OFFSET   0.000000  14.370100   1.956600
                    CHANNELS 3 Zrotation Xrotation Yrotation
                    End Site
                    {
                        OFFSET   0.000000  19.566000   0.000000
                    }
                }
            }
            JOINT LeftCollar
            {
                OFFSET   3.911900  19.017000  -0.467063
                CHANNELS 3 Zrotation Xrotation Yrotation
                JOINT LeftShoulder
                {
                    OFFSET  10.383700   0.000000   0.000000
                    CHANNELS 3 Zrotation Xrotation Yrotation
                    JOINT LeftElbow
                    {
                        OFFSET  26.662100   0.001193   0.000980
                        CHANNELS 3 Zrotation Xrotation Yrotation
                        JOINT LeftWrist
                        {
                            OFFSET  28.869000  -0.000059  -0.000082
                            CHANNELS 3 Zrotation Xrotation Yrotation
                            JOINT LeftFinger0
                            {
                                OFFSET   2.044650  -2.323450   3.252850
                                CHANNELS 3 Zrotation Xrotation Yrotation
                                JOINT LeftFinger01
                                {
                                    OFFSET   3.088130   0.000000   0.000000
                                    CHANNELS 3 Zrotation Xrotation Yrotation
                                    JOINT LeftFinger02
                                    {
                                        OFFSET   2.639460   0.000000   0.000000
                                        CHANNELS 3 Zrotation Xrotation Yrotation
                                        End Site
                                        {
                                            OFFSET   2.582190   0.000000   0.000000
                                        }
                                    }
                                }
                            }
                            JOINT LeftFinger1
                            {
                                OFFSET   8.364480   0.000000   3.252850
                                CHANNELS 3 Zrotation Xrotation Yrotation
                                JOINT LeftFinger11
                                {
                                    OFFSET   4.646930   0.000000   0.000000
                                    CHANNELS 3 Zrotation Xrotation Yrotation
                                    JOINT LeftFinger12
                                    {
                                        OFFSET   2.323470   0.000000   0.000000
                                        CHANNELS 3 Zrotation Xrotation Yrotation
                                        End Site
                                        {
                                            OFFSET   2.273050   0.000000   0.000000
                                        }
                                    }
                                }
                            }
                            JOINT LeftFinger2
                            {
                                OFFSET   8.364490   0.000016   1.078090
                                CHANNELS 3 Zrotation Xrotation Yrotation
                                JOINT LeftFinger21
                                {
                                    OFFSET   5.111610   0.000000   0.000000
                                    CHANNELS 3 Zrotation Xrotation Yrotation
                                    JOINT LeftFinger22
                                    {
                                        OFFSET   2.788150   0.000016   0.000000
                                        CHANNELS 3 Zrotation Xrotation Yrotation
                                        End Site
                                        {
                                            OFFSET   2.727660   0.000000   0.000000
                                        }
                                    }
                                }
                            }
                            JOINT LeftFinger3
                            {
                                OFFSET   7.899780   0.000015  -1.078090
                                CHANNELS 3 Zrotation Xrotation Yrotation
                                JOINT LeftFinger31
                                {
                                    OFFSET   4.646930   0.000000   0.000000
                                    CHANNELS 3 Zrotation Xrotation Yrotation
                                    JOINT LeftFinger32
                                    {
                                        OFFSET   2.323470   0.000000   0.000000
                                        CHANNELS 3 Zrotation Xrotation Yrotation
                                        End Site
                                        {
                                            OFFSET   2.273050   0.000000   0.000000
                                        }
                                    }
                                }
                            }
                            JOINT LeftFinger4
                            {
                                OFFSET   7.435090   0.000000  -3.252850
                                CHANNELS 3 Zrotation Xrotation Yrotation
                                JOINT LeftFinger41
                                {
                                    OFFSET   3.717550   0.000000   0.000000
                                    CHANNELS 3 Zrotation Xrotation Yrotation
                                    JOINT LeftFinger42
                                    {
                                        OFFSET   1.858770   0.000000   0.000000
                                        CHANNELS 3 Zrotation Xrotation Yrotation
                                        End Site
                                        {
                                            OFFSET   1.818440   0.000000   0.000000
                                        }
                                    }
                                }
                            }
                        }
                    }
                }
            }
            JOINT RightCollar
            {
                OFFSET  -3.911910  19.017000  -0.467062
                CHANNELS 3 Zrotation Xrotation Yrotation
                JOINT RightShoulder
                {
                    OFFSET -10.383700   0.000014   0.000000
                    CHANNELS 3 Zrotation Xrotation Yrotation
                    JOINT RightElbow
                    {
                        OFFSET -26.662100   0.001225   0.001091
                        CHANNELS 3 Zrotation Xrotation Yrotation
                        JOINT RightWrist
                        {
                            OFFSET -28.869000  -0.000020  -0.000085
                            CHANNELS 3 Zrotation Xrotation Yrotation
                            JOINT RightFinger0
                            {
                                OFFSET  -2.044650  -2.323490   3.252850
                                CHANNELS 3 Zrotation Xrotation Yrotation
                                JOINT RightFinger01
                                {
                                    OFFSET  -3.088130   0.000000   0.000000
                                    CHANNELS 3 Zrotation Xrotation Yrotation
                                    JOINT RightFinger02
                                    {
                                        OFFSET  -2.639460   0.000000   0.000000
                                        CHANNELS 3 Zrotation Xrotation Yrotation
                                        End Site
                                        {
                                            OFFSET  -2.582190   0.000000   0.000000
                                        }
                                    }
                                }
                            }
                            JOINT RightFinger1
                            {
                                OFFSET  -8.364480   0.000000   3.252850
                                CHANNELS 3 Zrotation Xrotation Yrotation
                                JOINT RightFinger11
                                {
                                    OFFSET  -4.646930   0.000000   0.000000
                                    CHANNELS 3 Zrotation Xrotation Yrotation
                                    JOINT RightFinger12
                                    {
                                        OFFSET  -2.323470   0.000000   0.000000
                                        CHANNELS 3 Zrotation Xrotation Yrotation
                                        End Site
                                        {
                                            OFFSET  -2.273050   0.000000   0.000000
                                        }
                                    }
                                }
                            }
                            JOINT RightFinger2
                            {
                                OFFSET  -8.364480   0.000000   1.078090
                                CHANNELS 3 Zrotation Xrotation Yrotation
                                JOINT RightFinger21
                                {
                                    OFFSET  -5.111620   0.000000   0.000000
                                    CHANNELS 3 Zrotation Xrotation Yrotation
                                    JOINT RightFinger22
                                    {
                                        OFFSET  -2.788160   0.000000   0.000000
                                        CHANNELS 3 Zrotation Xrotation Yrotation
                                        End Site
                                        {
                                            OFFSET  -2.727660   0.000000   0.000000
                                        }
                                    }
                                }
                            }
                            JOINT RightFinger3
                            {
                                OFFSET  -7.899780   0.000000  -1.078090
                                CHANNELS 3 Zrotation Xrotation Yrotation
                                JOINT RightFinger31
                                {
                                    OFFSET  -4.646930   0.000000   0.000000
                                    CHANNELS 3 Zrotation Xrotation Yrotation
                                    JOINT RightFinger32
                                    {
                                        OFFSET  -2.323470   0.000000   0.000000
                                        CHANNELS 3 Zrotation Xrotation Yrotation
                                        End Site
                                        {
                                            OFFSET  -2.273050   0.000000   0.000000
                                        }
                                    }
                                }
                            }
                            JOINT RightFinger4
                            {
                                OFFSET  -7.435090   0.000000  -3.252850
                                CHANNELS 3 Zrotation Xrotation Yrotation
                                JOINT RightFinger41
                                {
                                    OFFSET  -3.717550   0.000000   0.000000
                                    CHANNELS 3 Zrotation Xrotation Yrotation
                                    JOINT RightFinger42
                                    {
                                        OFFSET  -1.858760   0.000000   0.000000
                                        CHANNELS 3 Zrotation Xrotation Yrotation
                                        End Site
                                        {
                                            OFFSET  -1.818440   0.000000   0.000000
                                        }
                                    }
                                }
                            }
                        }
                    }
                }
            }
        }
    }
    JOINT LeftHip
    {
        OFFSET   9.783030   0.000000   0.000000
        CHANNELS 3 Zrotation Xrotation Yrotation
        JOINT LeftKnee
        {
            OFFSET   0.000063 -41.789100   0.000608
            CHANNELS 3 Zrotation Xrotation Yrotation
            JOINT LeftAnkle
            {
                OFFSET   0.000048 -41.133200  -0.000184
                CHANNELS 3 Zrotation Xrotation Yrotation
                JOINT LeftToe
                {
                    OFFSET   0.000000  -6.358960  14.674500
                    CHANNELS 3 Zrotation Xrotation Yrotation
                    End Site
                    {
                        OFFSET   0.000000   0.000000   3.913200
                    }
                }
            }
        }
    }
    JOINT RightHip
    {
        OFFSET  -9.783030   0.000000   0.000000
        CHANNELS 3 Zrotation Xrotation Yrotation
        JOINT RightKnee
        {
            OFFSET   0.000071 -41.789100   0.001239
            CHANNELS 3 Zrotation Xrotation Yrotation
            JOINT RightAnkle
            {
                OFFSET   0.000037 -41.133200  -0.000166
                CHANNELS 3 Zrotation Xrotation Yrotation
                JOINT RightToe
                {
                    OFFSET   0.000000  -6.358960  14.674500
                    CHANNELS 3 Zrotation Xrotation Yrotation
                    End Site
                    {
                        OFFSET   0.000000   0.000000   3.913200
                    }
                }
            }
        }
    }
}
MOTION
Frames: 5
Frame Time:   0.016667
 -4.080160  87.568200   1.768900  -4.869430 -24.592400 -10.733700   2.727290  13.371900  -5.526970   7.103190  26.382900 -12.232300   4.254300   0.442840  -0.033303   6.990430   0.883376  25.755000  -4.116780  -8.024130   0.430956 -62.350800  24.958900 -18.723900  -1.155000   2.299170 -103.185000  35.101600 -29.318900  31.103200  59.029100  54.328400 -108.279000 -26.909700  -0.004690   0.001872  -8.454860   0.000202   0.001101 -88.996000   4.998960  -0.089401 -78.003800   0.003434   0.007348 -58.502800   0.000394   0.002477 -89.000000   0.009944  -0.004567 -94.520500   0.003440   0.005361 -70.890400  -0.002631   0.004473 -88.996100  -4.996370   0.088907 -91.717600  -0.000998   0.005676 -68.788100  -0.001926   0.005987 -88.984600  -9.996250   0.176313 -110.000000  -0.002541  -0.000639 -80.000000  -0.001166  -0.003138  12.306100  -5.468040  11.055200  49.248200  31.464400  11.999900  -1.989920  -3.371110 108.807000 -18.000200 -24.528400  11.274200 -41.794300  44.129500  84.489800  32.766300  -0.000513  -0.004082  11.383200  -0.005576   0.000238  88.995800   4.992110   0.091577  78.648700  -0.005392   0.006001  58.986500   0.004166   0.004517  89.000000  -0.000617  -0.005553  89.105800  -0.002826   0.005034  66.829400   0.001120   0.004949  88.996100  -5.001090  -0.087931  93.173700  -0.001377   0.004560  69.880300   0.002422   0.001510  88.984600  -9.994710  -0.176311 110.000000  -0.002741  -0.005597  80.000000  -0.006167   0.006084   6.705340  13.969900   3.452160  -7.605280  28.127300  17.440800  -5.333280 -17.792100   7.001510   0.000000   0.000000   0.000000   6.491380  14.069000  -9.943050  -5.481630  22.025700  -0.084289 -10.683100  -9.756710  -1.389470   0.000000   0.000000  -0.000000
 -4.046460  87.573200   1.717160  -4.854160 -24.535700 -10.727000   2.726220  13.317000  -5.500250   7.083580  26.275700 -12.168400   4.192340   0.437629  -0.032117   6.888660   0.873372  25.771400  -4.102450  -8.065000   0.491286 -62.259800  25.225500 -18.710800  -1.034050   2.165640 -103.275000  35.113400 -29.275900  30.852800  59.028900  54.328300 -108.279000 -26.802800  -0.004506   0.001876  -8.401390   0.000281   0.001132 -88.996000   4.998930  -0.089435 -77.993000   0.003457   0.007514 -58.494700   0.000201   0.002502 -89.000000   0.010130  -0.004654 -94.496100   0.003394   0.005453 -70.872100  -0.002668   0.004499 -88.996100  -4.996230   0.088913 -91.705400  -0.001092   0.005755 -68.779000  -0.001905   0.006079 -88.984600  -9.996220   0.176309 -110.000000  -0.002578  -0.000480 -80.000000  -0.001239  -0.003028  12.307300  -5.509820  11.103100  48.864500  31.608600  12.299400  -1.990090  -3.511170 108.836000 -17.833200 -24.510100  11.141200 -41.743900  44.104700  84.437100  32.820500  -0.000429  -0.004138  11.410300  -0.005385   0.000121  88.995800   4.991910   0.091640  78.592300  -0.005586   0.006843  58.944200   0.004196   0.005296  88.986000  -0.000579  -0.006391  89.147400  -0.002908   0.005938  66.860600   0.001458   0.005178  88.996100  -5.001300  -0.088121  93.250700  -0.001474   0.005245  69.938100   0.002760   0.001877  88.984600  -9.994660  -0.176309 110.000000  -0.002782  -0.005502  80.000000  -0.006194   0.005997   6.715550  13.863200   3.409000  -7.660270  28.110900  17.559600  -5.323000 -17.740000   6.962270  -0.000000   0.000000   0.000000   6.538380  14.012200  -9.939430  -5.552600  21.954400   0.037325 -10.803100  -9.584360  -1.612840  -0.000000   0.000000   0.000000
 -4.010760  87.586000   1.662570  -4.829150 -24.454100 -10.707400   2.719890  13.254500  -5.476530   7.055650  26.153600 -12.108800   4.132240   0.426583  -0.030553   6.789730   0.851577  25.812100  -4.086140  -8.093520   0.575301 -62.219600  25.367900 -18.700200  -0.979955   2.149470 -103.388000  35.096400 -29.252100  30.607100  59.028800  54.328300 -108.278000 -26.567800  -0.004325   0.001877  -8.283890   0.000350   0.001163 -88.996000   4.998900  -0.089465 -77.958500   0.003474   0.007673 -58.468900   0.000000   0.002522 -89.000000   0.010308  -0.004739 -94.383500   0.003350   0.005538 -70.787600  -0.002700   0.004520 -88.996100  -4.996080   0.088916 -91.620300  -0.001182   0.005827 -68.715200  -0.001870   0.006168 -88.984600  -9.996200   0.176304 -110.000000  -0.002612  -0.000323 -80.000000  -0.001309  -0.002921  12.317100  -5.583730  11.162900  48.502500  31.647900  12.633300  -2.074610  -3.604730 108.828000 -17.663900 -24.496300  10.946000 -41.645100  44.059400  84.352400  32.901000  -0.000345  -0.004192  11.450500  -0.005193  -0.000000  88.995800   4.991700   0.091697  78.567400  -0.005779   0.007681  58.925500   0.004231   0.006078  88.977100  -0.000548  -0.007214  89.236200  -0.002994   0.006850  66.927100   0.001833   0.005413  88.996100  -5.001510  -0.088301  93.393300  -0.001570   0.005924  70.045000   0.003099   0.002261  88.984600  -9.994620  -0.176306 110.000000  -0.002822  -0.005407  80.000000  -0.006216   0.005909   6.723380  13.745800   3.347150  -7.715930  28.087100  17.692800  -5.324200 -17.673300   6.905500   0.000000   0.000000   0.000000   6.601640  13.944400  -9.928550  -5.622930  21.832600   0.146332 -10.953800  -9.357410  -1.882030   0.000000   0.000000   0.000000
 -3.978020  87.605500   1.605350  -4.800410 -24.364500 -10.668000   2.708430  13.190900  -5.454510   7.018000  26.029900 -12.051500   4.078990   0.397031  -0.028179   6.702060   0.793052  25.876200  -4.072450  -8.112250   0.683503 -62.230100  25.454800 -18.714400  -0.925278   2.216910 -103.486000  35.157600 -29.114400  30.253400  59.028600  54.328200 -108.278000 -26.246000  -0.004145   0.001877  -8.122990   0.000411   0.001189 -88.996000   4.998870  -0.089479 -77.907400   0.003488   0.007835 -58.430600  -0.000201   0.002529 -89.000000   0.010497  -0.004815 -94.176900   0.003328   0.005612 -70.632600  -0.002727   0.004534 -88.987400  -4.995940   0.088923 -91.403200  -0.001280   0.005899 -68.552400  -0.001841   0.006261 -88.984600  -9.996170   0.176306 -110.000000  -0.002652  -0.000160 -80.000000  -0.001369  -0.002812  12.324700  -5.657040  11.230900  48.189800  31.611300  12.961700  -2.229190  -3.638800 108.740000 -17.307300 -24.376600  10.816900 -41.201500  43.789100  84.016600  33.034600  -0.000263  -0.004235  11.517300  -0.005003  -0.000159  88.995800   4.991520   0.091740  78.579900  -0.005967   0.008515  58.934800   0.004252   0.006859  89.126700  -0.000532  -0.008018  89.383200  -0.003091   0.007757  67.037300   0.002249   0.005650  88.996100  -5.001730  -0.088480  93.722000  -0.001679   0.006594  70.291500   0.003449   0.002653  88.984600  -9.994560  -0.176305 110.000000  -0.002872  -0.005320  80.000000  -0.006241   0.005815   6.714180  13.629300   3.317910  -7.726910  28.033300  17.799700  -5.341470 -17.598500   6.818860   0.000000   0.000000   0.000000   6.682740  13.870600  -9.881630  -5.684180  21.702900   0.223938 -11.125100  -9.133150  -2.181390   0.000000   0.000000   0.000000
 -3.949360  87.630300   1.546410  -4.770280 -24.267400 -10.603100   2.693230  13.127400  -5.428090   6.967480  25.907300 -11.983800   4.033350   0.349039  -0.024680   6.626840   0.697621  25.949200  -4.061020  -8.119020   0.794854 -62.290500  25.512600 -18.725500  -0.872088   2.278050 -103.540000  35.145100 -29.045000  29.907100  59.028600  54.328200 -108.278000 -25.885300  -0.003967   0.001877  -7.942650   0.000465   0.001214 -88.996000   4.998840  -0.089489 -77.814900   0.003495   0.007989 -58.361200  -0.000402   0.002530 -89.000000   0.010681  -0.004886 -93.814500   0.003306   0.005679 -70.360800  -0.002748   0.004543 -88.978600  -4.995790   0.088928 -91.070900  -0.001371   0.005964 -68.303200  -0.001811   0.006349 -88.984600  -9.996140   0.176307 -110.000000  -0.002689   0.000000 -80.000000  -0.001428  -0.002702  12.328200  -5.722250  11.308100  47.971000  31.557800  13.256900  -2.324020  -3.620290 108.570000 -16.842300 -24.209700  10.746400 -40.804800  43.405900  83.596100  33.123600  -0.000179  -0.004275  11.561800  -0.004816  -0.000323  88.995800   4.991340   0.091774  78.592300  -0.006157   0.009344  58.944200   0.004275   0.007641  89.276300  -0.000527  -0.008796  89.483000  -0.003189   0.008667  67.112200   0.002690   0.005892  88.996100  -5.001940  -0.088650  93.953200  -0.001789   0.007262  70.464900   0.003811   0.003056  88.984600  -9.994510  -0.176304 110.000000  -0.002921  -0.005232  80.000000  -0.006262   0.005717   6.710340  13.510700   3.296910  -7.708450  27.950600  17.888300  -5.370750 -17.510200   6.709570  -0.000000   0.000000   0.000000   6.765810  13.800500  -9.814670  -5.722870  21.551300   0.267897 -11.287500  -8.918710  -2.479650  -0.000000   0.000000  -0.000000
